<svg id="Layer_1" data-name="Layer 1" xmlns="http://www.w3.org/2000/svg" viewBox="0 0 37.11 58"><defs><style>.cls-1{fill:#2a313f}</style></defs><title>church</title><path class="cls-1" d="M30.79 58H6.31a3.44 3.44 0 0 1-3.43-3.43V30.09h1.29v24.48a2.15 2.15 0 0 0 2.15 2.15h24.47a2.15 2.15 0 0 0 2.15-2.15V30.09h1.29v24.48A3.44 3.44 0 0 1 30.79 58z"/><path class="cls-1" d="M36.2 33.68L18.55 16.04.91 33.68 0 32.77l18.55-18.55 18.56 18.55-.91.91z"/><path class="cls-1" d="M18.55 35.51a4.86 4.86 0 1 1 4.86-4.86 4.87 4.87 0 0 1-4.86 4.86zm0-8.44a3.58 3.58 0 1 0 3.58 3.58 3.58 3.58 0 0 0-3.58-3.58zM17.91 0h1.29v15.13h-1.29z"/><path class="cls-1" d="M14.29 3.86h8.53v1.29h-8.53zM26.09 58H11.01V42.92h15.08V58zM12.3 56.71h12.5v-12.5H12.3v12.5z"/><path class="cls-1" d="M17.91 43.57h1.29v13.79h-1.29z"/></svg>