<svg xmlns="http://www.w3.org/2000/svg" width="94.4" height="98.6" viewBox="0 0 94.4 98.6"><style>.st0{fill:#2a313f}.st1{fill:#9dc59a}.st2{fill:#5c9e57}.st3{fill:#e2eceb}.st4{fill:#afd0d8}.st5{fill:#ed1c2b}.st6{fill:#f47780}.st7{fill:#dfecef}.st8{fill:none}.st9{opacity:8e-2;fill:#FFF}.st10{fill:#edb95d}.st11{fill:#f4d59e}.st12{fill:#465368}</style><g id="XMLID_124_"><path id="XMLID_130_" class="st0" d="M49.5 58.8c-10.6-1.9-17.7-12-15.9-22.6.9-5.1 3.7-9.6 8-12.6 2-1.4 4.1-2.4 6.3-2.9-3.6.2-7.2 1.4-10.2 3.5-4.3 3-7.1 7.5-8 12.6-1.9 10.6 5.3 20.7 15.9 22.6 2.8.5 5.5.4 8.2-.3-1.5 0-2.9-.1-4.3-.3z"/><path id="XMLID_129_" class="st0" d="M48.2 20.6h1.6-1.6z"/><path id="XMLID_128_" class="st0" d="M50.2 20.6c.7 0 1.4.1 2.1.2-.7 0-1.4-.1-2.1-.2z"/><path id="XMLID_127_" class="st0" d="M55.3 58.6l-.9.3.9-.3z"/><path id="XMLID_126_" class="st0" d="M57 57.9c-.3.1-.6.2-.9.4.3-.1.6-.2.9-.4z"/><path id="XMLID_125_" class="st0" d="M58.6 57.1c-.2.1-.4.2-.7.3.3-.1.5-.2.7-.3z"/></g><g id="XMLID_91_"><path id="XMLID_123_" class="st1" d="M35.5 40.4l.5.2.3-.2v5.2h5.6v-2.8h1.5v2.8h.5v-8.5l.4.5.4-.4-2.7-2.5-2.8 2.5.5.5.2-.2V39l-1.6-1.2z"/><path id="XMLID_122_" class="st2" d="M44.6 34.2l.8.5.4-.2V46h2.8v-4h2.1v3.9h.8V34l.5.4s.6-.6.5-.6-3.9-3.2-3.9-3.2l-4 3.6z"/><path id="XMLID_121_" class="st1" d="M52.7 34.1v12h.6v-3.9h2.1v3.9h3.4v-8h1l-1.7-4h-.2V33h-.7v1.1z"/><path id="XMLID_120_" class="st2" d="M59.4 40.1l.6.7.7-.7v6H67v-6.5l.7.6.7-.7-4.3-4.3z"/><path id="XMLID_119_" class="st3" d="M47.9 35.8h.7v.7h-.7z"/><path id="XMLID_118_" class="st3" d="M47.9 34.8h.7v.7h-.7z"/><path id="XMLID_117_" class="st3" d="M46.9 35.8h.7v.7h-.7z"/><path id="XMLID_116_" class="st3" d="M46.9 34.8h.7v.7h-.7z"/><path id="XMLID_115_" class="st3" d="M64.1 42.2h1.1v1.1h-1.1z"/><path id="XMLID_114_" class="st3" d="M64.1 40.6h1.1v1.1h-1.1z"/><path id="XMLID_113_" class="st3" d="M62.6 42.2h1.1v1.1h-1.1z"/><path id="XMLID_112_" class="st3" d="M62.6 40.6h1.1v1.1h-1.1z"/><path id="XMLID_111_" class="st3" d="M54.4 41h.7v.7h-.7z"/><path id="XMLID_110_" class="st3" d="M54.4 40h.7v.7h-.7z"/><path id="XMLID_109_" class="st3" d="M53.5 41h.7v.7h-.7z"/><path id="XMLID_108_" class="st3" d="M53.5 40h.7v.7h-.7z"/><path id="XMLID_107_" class="st3" d="M41.4 38.5h.6v.6h-.6z"/><path id="XMLID_106_" class="st3" d="M41.4 37.7h.6v.6h-.6z"/><path id="XMLID_105_" class="st3" d="M40.6 38.5h.6v.6h-.6z"/><path id="XMLID_104_" class="st3" d="M40.6 37.7h.6v.6h-.6z"/><path id="XMLID_103_" class="st3" d="M37.8 41.6h.6v.6h-.6z"/><path id="XMLID_102_" class="st3" d="M37.8 40.8h.6v.6h-.6z"/><path id="XMLID_101_" class="st3" d="M37 41.6h.6v.6H37z"/><path id="XMLID_100_" class="st3" d="M37 40.8h.6v.6H37z"/><path id="XMLID_99_" class="st3" d="M56.9 41h.7v.7h-.7z"/><path id="XMLID_98_" class="st3" d="M56.9 40h.7v.7h-.7z"/><path id="XMLID_97_" class="st3" d="M55.9 41h.7v.7h-.7z"/><path id="XMLID_96_" class="st3" d="M56 40h.7v.7H56z"/><path id="XMLID_95_" class="st3" d="M56.9 43.6h.7v.7h-.7z"/><path id="XMLID_94_" class="st3" d="M56.9 42.6h.7v.7h-.7z"/><path id="XMLID_93_" class="st3" d="M55.9 43.6h.7v.7h-.7z"/><path id="XMLID_92_" class="st3" d="M56 42.6h.7v.7H56z"/></g><g id="XMLID_30_"><path id="XMLID_31_" class="st0" d="M86.3 59.1h-.1c-.2-.1-.2-.3-.1-.4.3-.6.7-1.3.9-1.9.1-.2.3-.2.4-.2.2.1.2.3.2.4-.3.7-.6 1.3-1 1.9-.1.1-.2.2-.3.2zm1.8-3.9H88c-.2-.1-.2-.2-.2-.4.3-.7.5-1.3.7-2 .1-.2.2-.2.4-.2.2.1.2.2.2.4-.2.7-.5 1.4-.7 2-.1.1-.2.2-.3.2zM51.2 80.3c-.2 0-.3-.1-.3-.3 0-.2.1-.3.3-.3.7 0 1.4 0 2.1-.1.2 0 .3.1.3.3 0 .2-.1.3-.3.3-.6 0-1.4.1-2.1.1zm-2.1-.1c-.1 0-.1 0 0 0-.7 0-1.5-.1-2.2-.2-.2 0-.3-.2-.3-.3 0-.2.2-.3.3-.3.7.1 1.4.1 2.1.2.2 0 .3.2.3.3.1.2-.1.3-.2.3zm6.4-.2c-.2 0-.3-.1-.3-.3 0-.2.1-.3.3-.3l2.1-.3c.2 0 .3.1.4.3 0 .2-.1.3-.3.4-.7 0-1.5.1-2.2.2zm-10.7-.2s-.1 0 0 0c-.8-.1-1.5-.3-2.2-.4-.2 0-.3-.2-.2-.4 0-.2.2-.3.4-.2.7.1 1.4.3 2.1.4.2 0 .3.2.3.4-.1.1-.3.2-.4.2zm14.9-.5c-.1 0-.3-.1-.3-.2 0-.2.1-.3.2-.4.7-.2 1.4-.3 2.1-.5.2 0 .3 0 .4.2 0 .2 0 .3-.2.4-.7.2-1.4.3-2.2.5.1 0 .1 0 0 0zm-19.1-.4c-.1 0-.1 0 0 0-.8-.2-1.5-.4-2.2-.6-.2-.1-.2-.2-.2-.4.1-.2.2-.2.4-.2.7.2 1.4.4 2 .6.2 0 .3.2.2.4 0 .1-.1.2-.2.2zm23.3-.7c-.1 0-.2-.1-.3-.2-.1-.2 0-.3.2-.4.7-.2 1.3-.5 2-.7.2-.1.3 0 .4.2.1.2 0 .3-.2.4-.7.1-1.3.4-2.1.7 0-.1 0 0 0 0zm-27.4-.7h-.1c-.7-.3-1.3-.5-2-.8-.2-.1-.2-.3-.2-.4.1-.2.3-.2.4-.2.6.3 1.3.6 2 .8.2.1.2.2.2.4-.1.1-.2.2-.3.2zm31.4-1c-.1 0-.2-.1-.3-.2-.1-.2 0-.3.1-.4.6-.3 1.3-.6 1.9-1 .2-.1.3 0 .4.1.1.1 0 .3-.1.4-.6.3-1.3.7-1.9 1 0 .1-.1.1-.1.1zm-35.3-.8h-.1c-.6-.3-1.3-.7-1.9-1.1-.1-.1-.2-.3-.1-.4.1-.1.3-.2.4-.1.6.4 1.2.7 1.9 1 .2.1.2.3.1.4-.1.2-.2.2-.3.2zm39.1-1.2c-.1 0-.2-.1-.3-.1-.1-.1 0-.3.1-.4l1.8-1.2c.1-.1.3-.1.4.1.1.1.1.3-.1.4l-1.8 1.2h-.1zm-42.8-1c-.1 0-.1 0-.2-.1-.6-.4-1.2-.8-1.8-1.3-.1-.1-.2-.3-.1-.4.1-.1.3-.2.4-.1.6.4 1.2.8 1.7 1.2.1.1.2.3.1.4.1.3 0 .3-.1.3zm46.3-1.4c-.1 0-.2 0-.2-.1-.1-.1-.1-.3.1-.4.6-.4 1.1-.9 1.7-1.3.1-.1.3-.1.4 0 .1.1.1.3 0 .4-.5.5-1.1.9-1.7 1.4h-.3zm-49.8-1.2c-.1 0-.1 0-.2-.1-.6-.5-1.1-1-1.6-1.4-.1-.1-.1-.3 0-.4.1-.1.3-.1.4 0 .5.5 1.1 1 1.6 1.4.1.1.1.3 0 .4 0 .1-.1.1-.2.1zm53.1-1.6c-.1 0-.2 0-.2-.1-.1-.1-.1-.3 0-.4l1.5-1.5c.1-.1.3-.1.4 0 .1.1.1.3 0 .4l-1.5 1.5c-.1.1-.1.1-.2.1zM22.3 68c-.1 0-.2 0-.2-.1-.5-.5-1-1.1-1.5-1.6-.1-.1-.1-.3 0-.4.1-.1.3-.1.4 0 .5.5.9 1.1 1.4 1.6.1.1.1.3 0 .4 0 .1 0 .1-.1.1zm59.1-1.8c-.1 0-.1 0-.2-.1s-.1-.3 0-.4c.5-.5.9-1.1 1.3-1.7.1-.1.3-.2.4-.1.1.1.2.3.1.4-.4.6-.9 1.1-1.4 1.7 0 .1-.1.2-.2.2zm-61.9-1.5c-.1 0-.2 0-.2-.1-.4-.6-.9-1.2-1.3-1.8-.1-.1-.1-.3.1-.4.1-.1.3-.1.4.1.4.6.8 1.2 1.3 1.7.1.1.1.3-.1.4-.1.1-.2.1-.2.1zM84 62.8c-.1 0-.1 0-.2-.1s-.2-.3-.1-.4l1.2-1.8c.1-.1.3-.2.4-.1.1.1.2.3.1.4l-1.2 1.8c0 .1-.1.2-.2.2zm-67-1.6c-.1 0-.2-.1-.3-.1-.4-.6-.7-1.2-1.1-1.9-.1-.1 0-.3.1-.4.1-.1.3 0 .4.1.3.6.7 1.2 1.1 1.8.1.1 0 .3-.1.4.1.1 0 .1-.1.1zm-2-3.8c-.1 0-.2-.1-.3-.2-.3-.6-.6-1.3-.9-2-.1-.2 0-.3.2-.4.2-.1.3 0 .4.2.3.7.6 1.3.9 2 .1.2 0 .3-.1.4H15zm-1.6-4c-.1 0-.2-.1-.3-.2-.2-.7-.5-1.4-.7-2.1 0-.2 0-.3.2-.4.2 0 .3 0 .4.2.2.7.4 1.4.6 2 .1.2 0 .3-.2.4.1.1 0 .1 0 .1zm76-2.3c-.2-.1-.3-.2-.3-.4.2-.7.4-1.4.5-2.1 0-.2.2-.3.4-.2.2 0 .3.2.2.4-.2.7-.3 1.4-.5 2.1 0 .1-.1.2-.3.2zm-77.2-1.8c-.1 0-.3-.1-.3-.2-.2-.7-.3-1.4-.4-2.1 0-.2.1-.3.3-.4.2 0 .3.1.4.3.1.7.3 1.4.4 2.1-.1.1-.2.2-.4.3.1 0 0 0 0 0zm78.2-2.4c-.1 0-.1 0 0 0-.2 0-.3-.2-.3-.4l.3-2.1c0-.2.2-.3.3-.3.2 0 .3.2.3.3l-.3 2.1c-.1.3-.2.4-.3.4zM11.5 45c-.2 0-.3-.1-.3-.3-.1-.7-.2-1.4-.2-2.1 0-.2.1-.3.3-.3.2 0 .3.1.3.3 0 .7.1 1.4.2 2.1 0 .2-.1.3-.3.3zm79.3-2.4c-.2 0-.3-.2-.3-.3 0-.7.1-1.4.1-2.1v-.6c0-.2.1-.3.3-.3.2 0 .3.1.3.3v.6c0 .7 0 1.5-.1 2.2 0 .1-.1.2-.3.2zm-79.6-1.9c-.2 0-.3-.1-.3-.3V38.2c0-.2.1-.3.3-.3.2 0 .3.2.3.3v2.1c0 .3-.1.4-.3.4zm79.6-3c-.2 0-.3-.1-.3-.3 0-.7-.1-1.4-.2-2.1 0-.2.1-.3.3-.3.2 0 .3.1.3.3.1.7.2 1.4.2 2.2 0 0-.1.2-.3.2zm-79.4-1.3c-.2 0-.3-.2-.3-.3.1-.7.2-1.4.3-2.2 0-.2.2-.3.4-.3s.3.2.3.4l-.3 2.1c-.1.2-.2.3-.4.3zm78.9-3c-.1 0-.3-.1-.3-.3-.1-.7-.3-1.4-.4-2.1 0-.2.1-.3.2-.4.2 0 .3.1.4.2.2.7.3 1.4.4 2.1 0 .3-.1.5-.3.5zm-78.2-1.2s-.1 0 0 0c-.2 0-.3-.2-.3-.4.1-.7.3-1.4.5-2.1 0-.2.2-.3.4-.2.2 0 .3.2.2.4-.2.7-.4 1.4-.5 2.1-.1.1-.2.2-.3.2zm77.2-3c-.1 0-.3-.1-.3-.2-.2-.7-.4-1.4-.7-2-.1-.2 0-.3.2-.4.2-.1.3 0 .4.2.2.7.5 1.4.7 2.1 0 .1-.1.3-.3.3zM13.2 28s-.1 0 0 0c-.3-.1-.3-.2-.3-.4.2-.7.5-1.4.7-2 .1-.2.2-.2.4-.2.2.1.2.2.2.4-.3.7-.5 1.3-.7 2-.1.2-.2.2-.3.2zm74.6-2.8c-.1 0-.2-.1-.3-.2-.3-.7-.6-1.3-.9-1.9-.1-.2 0-.3.1-.4.2-.1.3 0 .4.1.3.6.6 1.3.9 2 .1.2 0 .3-.2.4.1 0 .1 0 0 0zm-73-1.2h-.1c-.2-.1-.2-.3-.2-.4.3-.7.6-1.3.9-2 .1-.2.3-.2.4-.1.2.1.2.3.1.4-.3.6-.6 1.3-.9 1.9 0 .2-.1.2-.2.2zM86 21.3c-.1 0-.2-.1-.3-.2-.3-.6-.7-1.2-1.1-1.8-.1-.1 0-.3.1-.4.1-.1.3 0 .4.1.4.6.7 1.2 1.1 1.9.1.1 0 .3-.1.4H86zm-69.3-1.1h-.2c-.1-.1-.2-.3-.1-.4l1.2-1.8c.1-.1.3-.2.4-.1.1.1.2.3.1.4-.4.6-.8 1.2-1.1 1.8 0 0-.2.1-.3.1zm67-2.6c-.1 0-.2 0-.3-.1-.4-.6-.8-1.2-1.3-1.7-.1-.1-.1-.3.1-.4.1-.1.3-.1.4.1.4.6.9 1.2 1.3 1.7.1.1.1.3-.1.4h-.1zm-64.6-1c-.1 0-.1 0-.2-.1s-.2-.3-.1-.4c.4-.6.9-1.2 1.3-1.7.1-.1.3-.1.4 0 .1.1.1.3 0 .4-.5.5-.9 1.1-1.3 1.7.1.1 0 .1-.1.1zm62-2.3c-.1 0-.2 0-.2-.1-.5-.5-1-1.1-1.4-1.6-.1-.1-.1-.3 0-.4.1-.1.3-.1.4 0 .5.5 1 1.1 1.5 1.6.1.1.1.3 0 .4-.2 0-.3.1-.3.1zm-59.2-1c-.1 0-.2 0-.2-.1-.1-.1-.1-.3 0-.4l1.5-1.5c.1-.1.3-.1.4 0 .1.1.1.3 0 .4l-1.5 1.5c0 .1-.1.1-.2.1zm56.2-2.1c-.1 0-.1 0-.2-.1-.5-.5-1.1-1-1.6-1.4-.1-.1-.1-.3 0-.4.1-.1.3-.1.4 0 .6.5 1.1.9 1.6 1.4.1.1.1.3 0 .4-.1 0-.2.1-.2.1zM25 10.3c-.1 0-.2 0-.2-.1-.1-.1-.1-.3 0-.4.5-.5 1.1-.9 1.7-1.4.1-.1.3-.1.4.1.1.1.1.3-.1.4-.6.4-1.1.9-1.7 1.4H25zm49.8-1.9c-.1 0-.1 0-.2-.1-.6-.4-1.2-.8-1.7-1.2-.1-.1-.2-.3-.1-.4.1-.1.3-.2.4-.1L75 7.8c.1.2.1.4 0 .5-.1.1-.2.1-.2.1zm-46.4-.7c-.1 0-.2 0-.3-.1-.1-.1-.1-.3.1-.4L30 6c.1-.1.3 0 .4.1.1.1 0 .3-.1.4l-1.8 1.2h-.1zm42.8-1.6H71c-.6-.4-1.2-.7-1.9-1-.1-.2-.2-.4-.1-.5.1-.2.3-.2.4-.1.6.3 1.3.7 1.9 1 .1.1.2.3.1.4 0 .1-.1.2-.2.2zM32 5.4c-.1 0-.2-.1-.3-.2-.1-.1 0-.3.1-.4.6-.3 1.3-.7 1.9-1 .2-.1.3 0 .4.1.1.2 0 .3-.1.4-.6.3-1.3.6-1.9 1 0 .1 0 .1-.1.1zm35.3-1.3h-.1c-.6-.3-1.3-.6-2-.8-.1-.1-.2-.3-.1-.5s.2-.2.4-.2c.7.3 1.3.5 2 .8.2.1.2.3.2.4-.1.2-.3.3-.4.3zm-31.4-.5c-.1 0-.2-.1-.3-.2-.1-.2 0-.3.2-.4.7-.3 1.3-.5 2-.8.2-.1.3 0 .4.2.1.2 0 .3-.2.4-.7.2-1.3.5-2 .8h-.1zm27.4-1.1s-.1 0 0 0c-.8-.2-1.5-.4-2.1-.6-.2 0-.3-.2-.2-.4 0-.2.2-.3.4-.2l2.1.6c.2.1.3.2.2.4-.1.2-.3.2-.4.2zM40 2.2c-.1 0-.3-.1-.3-.2 0-.2 0-.3.2-.4L42 1c.2 0 .3.1.4.2 0 .2-.1.3-.2.4-.8.2-1.5.4-2.2.6zm19.1-.8c-.8-.1-1.5-.3-2.2-.4-.2 0-.3-.2-.3-.3 0-.2.2-.3.4-.3.7.1 1.4.2 2.1.4.2 0 .3.2.2.4.1.1 0 .2-.2.2zm-14.9-.2c-.1 0-.3-.1-.3-.3 0-.2.1-.3.3-.4l2.1-.3c.2 0 .3.1.3.3 0 .2-.1.3-.3.3-.7.2-1.4.3-2.1.4zM54.9.8c-.7-.1-1.4-.1-2.2-.1-.2 0-.3-.2-.3-.3 0-.2.1-.3.3-.3.7 0 1.4.1 2.2.1.2 0 .3.2.3.3 0 .2-.1.3-.3.3zM48.4.7c-.2 0-.3-.1-.3-.3 0-.2.1-.3.3-.3.7-.1 1.5-.1 2.2-.1.2 0 .3.1.3.3 0 .2-.1.3-.3.3-.7 0-1.4 0-2.2.1.1 0 .1 0 0 0z"/></g><path id="XMLID_27_" class="st4" d="M55.7 15c-6.7-1.2-13.4.3-18.9 4.2-5.5 3.9-9.2 9.7-10.4 16.3-2.4 13.8 6.8 27 20.5 29.4 6.7 1.2 13.4-.3 18.9-4.3 5.5-3.9 9.2-9.7 10.4-16.3 1.2-6.6-.3-13.4-4.2-18.9-3.9-5.5-9.7-9.2-16.3-10.4zm14.2 28.2c-.9 4.9-3.6 9.2-7.7 12.1-4.1 2.9-9.1 4-14.1 3.2C37.8 56.7 31 46.9 32.8 36.7c.9-4.9 3.6-9.2 7.7-12.1 4.1-2.9 9.1-4 14.1-3.2 4.9.9 9.3 3.6 12.2 7.7 2.8 4.2 3.9 9.2 3.1 14.1z"/><path id="XMLID_26_" class="st5" d="M91.6 97.4c-2.9 2.1-7 1.4-9-1.6L66.5 72.9c-2-2.9-1.3-7 1.6-9 2.9-2.1 7-1.3 9 1.6l16.1 22.9c2 2.9 1.3 7-1.6 9z"/><path id="XMLID_25_" class="st6" d="M88.9 96.8c-1.1.8-2.7.5-3.5-.6L69.3 73.3c-.8-1.1-.5-2.7.6-3.5 1.1-.8 2.7-.5 3.5.6l16.1 22.9c.8 1.1.5 2.7-.6 3.5z"/><g id="XMLID_23_"><path id="XMLID_24_" class="st7" d="M47.2 63.5c-13-2.3-21.7-14.7-19.4-27.6 1.1-6.3 4.6-11.7 9.8-15.4 5.2-3.7 11.6-5.1 17.8-4l-.6 3.1c-5.4-1-10.9.3-15.5 3.5-4.5 3.2-7.5 7.9-8.5 13.3-2 11.2 5.6 22 16.8 23.9l-.4 3.2z"/></g><g id="XMLID_19_"><path id="XMLID_20_" class="st4" d="M70.2 67c-1.5 1-3.5.7-4.5-.8l-3.3-4.8c-1-1.5-.7-3.5.8-4.5s3.5-.7 4.5.8l3.3 4.8c1 1.4.6 3.4-.8 4.5 0-.1 0 0 0 0z"/></g><circle id="XMLID_18_" class="st4" cx="17" cy="66.9" r="12.9"/><path id="XMLID_17_" class="st9" d="M29.7 69.1l-7.2-7.2-.1-.1c-.5-.5-1.5-.6-2.2-.4-.1 0-.1 0-.2.1 0 0-.1 0-.1.1h-.1s-.1 0-.1.1c0 0-.1 0-.1.1 0 0-.1 0-.1.1l-.1.1c-.4.4-.4.9-.4 1.3l-2.1-2.1-.1-.1c-.6-.6-1.7-.8-2.6-.6-.1 0-.2 0-.2.1-.1 0-.1 0-.2.1h-.1c-.1 0-.1 0-.2.1h-.1s-.1 0-.1.1c0 0-.1 0-.1.1 0 0-.1 0-.1.1-.1 0-.1.1-.2.2-.6.6-.5 1.5-.5 1.8 0 .2.1.5.1.7h-.1c-.1 0-.2.1-.2.3l.1 1.3c0 .1.1.2.3.2.1 0 .1 0 .2-.1 0 .3.1.6.1.8 0 .2.2.5.5.7 0 .3.1.6.1.9-1.3.1-2.5.5-3.6 1-.4.2-.6.7-.6 1.1 0 .4.1.9.1 1.3 0 .2.1.4.3.6l8.4 8.4c5.8-1 10.6-5.4 11.6-11.2z"/><g id="XMLID_10_"><g id="XMLID_14_"><path id="XMLID_16_" class="st10" d="M24.4 67.7c-.9-.4-1.4-.6-2.5-.8 0-.2.1-.5.1-.7.2-.1.4-.3.4-.5s.1-.4.1-.6l.1.1c.1 0 .2-.1.2-.2l.1-1c0-.1-.1-.2-.2-.2h-.1c0-.2 0-.4.1-.6 0-.3.1-1-.4-1.4-.7-.7-2.3-.7-3 0-.5.4-.4 1.1-.4 1.4 0 .2 0 .4.1.6h-.1c-.1 0-.2.1-.2.2l.1 1c0 .1.1.2.2.2 0 0 .1 0 .1-.1 0 .2.1.4.1.6 0 .2.2.4.4.5 0 .2.1.5.1.7-1 .1-1.9.4-2.8.8-.3.2-.5.5-.5.9s.1.7.1 1.1c0 .3.3.6.6.7 2.5.4 4.6.4 7.1 0 .3-.1.6-.4.6-.7 0-.4.1-.7.1-1.1 0-.4-.2-.8-.5-.9z"/><path id="XMLID_15_" class="st11" d="M20.8 61.2c-.5 0-1.1.2-1.4.5-.5.4-.4 1.1-.4 1.4 0 .2 0 .4.1.6H19c-.1 0-.2.1-.2.2l.1 1c0 .1.1.2.2.2 0 0 .1 0 .1-.1 0 .2.1.4.1.6 0 .2.2.4.4.5 0 .2.1.5.1.7-1 .1-1.9.4-2.8.8-.3.2-.5.5-.5.9s.1.7.1 1.1c0 .3.3.6.6.7 1.2.2 2.4.3 3.6.3v-9.4z"/></g><g id="XMLID_11_"><path id="XMLID_13_" class="st0" d="M18.6 67.8c-1.2-.5-1.2-.3-2.5-.5 0-.3.1-.6.1-.9.3-.2.5-.4.5-.7 0-.3.1-.6.1-.8 0 0 .1.1.2.1s.3-.1.3-.2l.1-1.3c0-.1-.1-.3-.2-.3h-.1c0-.2.1-.5.1-.7 0-.3.2-1.2-.5-1.8-.9-.9-3-.9-3.9 0-.6.6-.5 1.5-.5 1.8 0 .2.1.5.1.7h-.1c-.1 0-.2.1-.2.3l.1 1.3c0 .1.1.2.3.2.1 0 .1 0 .2-.1 0 .3.1.6.1.8 0 .2.2.5.5.7 0 .3.1.6.1.9-1.3.1-2.5.5-3.6 1-.4.2-.6.7-.6 1.1 0 .4.1.9.1 1.3s.4.8.7.8c3.2.5 6.4.5 9.5 0 .4-.1.7-.5.7-.8 0-.4.1-.9.1-1.3.1-.4-1.3-1.4-1.7-1.6z"/><path id="XMLID_12_" class="st12" d="M14.6 60c-.7 0-1.4.2-1.8.7-.6.6-.5 1.5-.5 1.8 0 .2.1.5.1.7h-.1c-.1 0-.2.1-.2.3l.1 1.3c0 .1.1.2.3.2.1 0 .1 0 .2-.1 0 .3.1.6.1.8 0 .2.2.5.5.7 0 .3.1.6.1.9-1.3.1-2.5.5-3.6 1-.4.2-.6.7-.6 1.1 0 .4.1.9.1 1.3s.4.8.7.8c1.5.2 3.1.4 4.6.4V60z"/></g></g><circle id="XMLID_9_" class="st4" cx="49.7" cy="80.3" r="6.9"/><path id="XMLID_8_" class="st5" d="M50 83.9c.2-.2.6-.5 1-.6.4-.1 1.6-.3 1.9-1.5.2-.9-.2-2-.2-2.4 0-.4.1-1.3.1-1.5 0-.2-.1-.3-.3-.2-.2.1-.6.2-1.1.2-.5 0-1.2-.4-1.3-.6-.2.3-.8.6-1.3.6s-.9-.2-1.1-.2c-.1 0-.3 0-.3.2 0 .1.1 1.1.1 1.5 0 .5-.5 1.5-.3 2.4.3 1.2 1.4 1.4 1.8 1.5.4.1.8.4 1 .6z"/><circle id="XMLID_7_" class="st0" cx="9.1" cy="30.8" r="9.1"/><path id="XMLID_1_" class="st7" d="M14.4 27.1l-3.3-1.6c-.2-.1-.3-.1-.5 0L7.5 27l-3.1-1c-.2-.1-.4 0-.5.1-.1.1-.2.3-.2.4v7.1c0 .2.1.4.3.5l3.3 1.6c.1 0 .2.1.2.1.1 0 .2 0 .2-.1l3.1-1.5 3.1 1c.2.1.4 0 .5-.1.1-.1.2-.3.2-.4v-7.1c.1-.2 0-.4-.2-.5zm-6.3.9l2.2-1.1v6.5l-2.2 1.1V28zm-3.3-.7L7 28v6.4l-2.2-1.1v-6zm8.8 6.7l-2.2-.7v-6.4l2.2 1.1v6z"/></svg>